<?xml version="1.0" encoding="utf-8"?>
<!-- Generator: Adobe Illustrator 26.3.1, SVG Export Plug-In . SVG Version: 6.00 Build 0)  -->
<svg version="1.1" id="Layer_1" xmlns="http://www.w3.org/2000/svg" xmlns:xlink="http://www.w3.org/1999/xlink" x="0px" y="0px"
	 viewBox="0 0 100 100" style="enable-background:new 0 0 100 100;" xml:space="preserve">
<style type="text/css">
	.st0{fill:#17224B;}
</style>
<g>
	<path class="st0" d="M43.8,14.7v19.8c0,10.3-1.2,18.8-3.7,25.4s-6.7,12.3-12.8,16.9c-6.1,4.6-12.9,7.7-20.5,9.3v-16
		c5.5-3,8.5-7.1,9.3-12.3H6.8V14.7H43.8z M93.2,14.7v19.8c0,10.3-1.2,18.8-3.7,25.4c-2.5,6.7-6.7,12.3-12.8,16.9
		c-6.1,4.6-12.9,7.7-20.5,9.3v-16c5.4-3,8.4-7.1,9.1-12.3h-9.1V14.7H93.2z"/>
</g>
</svg>
