<?xml version="1.0" encoding="utf-8"?>
<!-- Generator: Adobe Illustrator 26.3.1, SVG Export Plug-In . SVG Version: 6.00 Build 0)  -->
<svg version="1.1" id="Layer_1" xmlns="http://www.w3.org/2000/svg" xmlns:xlink="http://www.w3.org/1999/xlink" x="0px" y="0px"
	 viewBox="0 0 57.2 57.2" style="enable-background:new 0 0 57.2 57.2;" xml:space="preserve">
<style type="text/css">
	.st0{fill:#3297B7;}
</style>
<path class="st0" d="M29.5,3.4C15.1,3.4,3.4,15.1,3.4,29.6c0,13.4,10,24.4,22.9,26V35.9H22v-7.3h4.4c0,0,0-4.9,0-6
	c0-1.1-0.2-8.4,9.2-8.4h6.7v7.6h-4.9c-1,0-2,1-2,1.8c0,0.7,0,5,0,5s6.1,0,6.8,0c-0.3,3.8-0.8,7.4-0.8,7.4h-6v19.3
	C46.9,52.5,55.6,42,55.6,29.6C55.6,15.1,43.9,3.4,29.5,3.4z"/>
</svg>
