<?xml version="1.0" encoding="utf-8"?>
<!-- Generator: Adobe Illustrator 26.3.1, SVG Export Plug-In . SVG Version: 6.00 Build 0)  -->
<svg version="1.1" id="Layer_1" xmlns="http://www.w3.org/2000/svg" xmlns:xlink="http://www.w3.org/1999/xlink" x="0px" y="0px"
	 viewBox="0 0 90.7 84" style="enable-background:new 0 0 90.7 84;" xml:space="preserve">
<style type="text/css">
	.st0{fill:#FFFFFF;}
</style>
<g>
	<path class="st0" d="M43.3,23.2L18.9,43.4c0,0,0,0.1,0,0.1c0,0.1,0,0.1,0,0.1v28.1l19,0l0-16h10.9l0,16h19V43.6c0-0.1,0-0.2,0-0.3
		L43.3,23.2z"/>
	<path class="st0" d="M77.1,38.8L67.8,31V13.7c0-0.4-0.1-0.7-0.4-1c-0.3-0.3-0.6-0.4-1-0.4h-8.2c-0.4,0-0.7,0.1-1,0.4
		c-0.3,0.3-0.4,0.6-0.4,1V22l-10.4-8.7c-0.9-0.7-2-1.1-3.2-1.1c-1.2,0-2.3,0.4-3.2,1.1L9.5,38.8c-0.3,0.2-0.4,0.5-0.5,0.9
		c0,0.4,0.1,0.7,0.3,1l2.6,3.1c0.2,0.3,0.5,0.4,0.9,0.5c0.3,0,0.7-0.1,1-0.3l29.4-24.5L72.7,44c0.2,0.2,0.5,0.3,0.9,0.3h0.1
		c0.4-0.1,0.7-0.2,0.9-0.5l2.6-3.1c0.2-0.3,0.3-0.6,0.3-1C77.6,39.3,77.4,39,77.1,38.8L77.1,38.8z"/>
</g>
</svg>
