<?xml version="1.0" encoding="utf-8"?>
<!-- Generator: Adobe Illustrator 26.3.1, SVG Export Plug-In . SVG Version: 6.00 Build 0)  -->
<svg version="1.1" id="Layer_1" xmlns="http://www.w3.org/2000/svg" xmlns:xlink="http://www.w3.org/1999/xlink" x="0px" y="0px"
	 viewBox="0 0 57.2 57.2" style="enable-background:new 0 0 57.2 57.2;" xml:space="preserve">
<style type="text/css">
	.st0{fill:#3297B7;}
</style>
<g>
	<path class="st0" d="M38.6,15.2H19.9c-2.4,0-4.3,2-4.3,4.3v18.8c0,2.4,2,4.3,4.3,4.3h18.8c2.4,0,4.3-2,4.3-4.3V19.6
		C43,17.2,41,15.2,38.6,15.2z M29.3,37.9c-4.9,0-8.9-4-8.9-8.9c0-4.9,4-8.9,8.9-8.9c4.9,0,8.9,4,8.9,8.9
		C38.1,33.9,34.1,37.9,29.3,37.9z M38.5,22.5c-1.2,0-2.2-1-2.2-2.2s1-2.2,2.2-2.2c1.2,0,2.2,1,2.2,2.2S39.7,22.5,38.5,22.5z"/>
	<path class="st0" d="M29.3,23.6c-3,0-5.4,2.4-5.4,5.4s2.4,5.4,5.4,5.4c3,0,5.4-2.4,5.4-5.4S32.3,23.6,29.3,23.6z"/>
	<path class="st0" d="M29.5,3.4C15.1,3.4,3.4,15.1,3.4,29.5c0,14.4,11.7,26.1,26.1,26.1s26.1-11.7,26.1-26.1
		C55.6,15.1,43.9,3.4,29.5,3.4z M46.4,38.3c0,4.3-3.5,7.8-7.8,7.8H19.9c-4.3,0-7.8-3.5-7.8-7.8V19.6c0-4.3,3.5-7.8,7.8-7.8h18.8
		c4.3,0,7.8,3.5,7.8,7.8V38.3z"/>
</g>
</svg>
