<?xml version="1.0" encoding="utf-8"?>
<!-- Generator: Adobe Illustrator 26.3.1, SVG Export Plug-In . SVG Version: 6.00 Build 0)  -->
<svg version="1.1" id="Layer_1" xmlns="http://www.w3.org/2000/svg" xmlns:xlink="http://www.w3.org/1999/xlink" x="0px" y="0px"
	 viewBox="0 0 57.2 57.2" style="enable-background:new 0 0 57.2 57.2;" xml:space="preserve">
<style type="text/css">
	.st0{fill:#3398B8;}
</style>
<path class="st0" d="M28.4,2.1C14,2.1,2.3,13.8,2.3,28.2c0,14.4,11.7,26.1,26.1,26.1s26.1-11.7,26.1-26.1
	C54.5,13.8,42.8,2.1,28.4,2.1z M19.3,40.7h-5.4c-0.4,0-0.8-0.4-0.8-0.8V21.7c0-0.4,0.4-0.8,0.8-0.8h4.6c0.4,0,0.8,0.4,0.8,0.8V40.7z
	 M16,18.4L16,18.4c-2.3,0-3.7-1.5-3.7-3.4c0-2,1.5-3.4,3.8-3.4c2.3,0,3.7,1.5,3.7,3.4C19.8,16.9,18.3,18.4,16,18.4z M44.1,40.7h-6.2
	c-0.4,0-0.8-0.4-0.8-0.8v-9.5c0-2.7-1.1-4.5-3.5-4.5c-1.8,0-2.9,1.2-3.4,2.4C30,28.8,30,29.4,30,30v9.9c0,0.4-0.4,0.8-0.8,0.8h-5.4
	c-0.4,0-0.8-0.4-0.8-0.8c0-3.2,0.1-14.9,0-18.2c0-0.4,0.3-0.8,0.8-0.8h5.4c0.4,0,0.8,0.4,0.8,0.8c0,0.7,0.8,1,1.3,0.6
	c1.1-0.9,2.7-1.6,4.9-1.6c4.4,0,7.9,2.9,7.9,9V40.7z"/>
</svg>
