<?xml version="1.0" encoding="utf-8"?>
<!-- Generator: Adobe Illustrator 26.3.1, SVG Export Plug-In . SVG Version: 6.00 Build 0)  -->
<svg version="1.1" id="Layer_1" xmlns="http://www.w3.org/2000/svg" xmlns:xlink="http://www.w3.org/1999/xlink" x="0px" y="0px"
	 viewBox="0 0 70 70" style="enable-background:new 0 0 70 70;" xml:space="preserve">
<style type="text/css">
	.st0{fill:#18649F;}
	.st1{fill:#162048;}
	.st2{fill:#FFFFFF;}
</style>
<path class="st0" d="M58.6,59.4H11.4V14.9c0-3.3,2.7-6,6-6h35.2c3.3,0,6,2.7,6,6V59.4z"/>
<path class="st1" d="M57.3,58.8H12.7V27.2c0-3.3,2.7-6,6-6h32.5c3.3,0,6,2.7,6,6V58.8z"/>
<g>
	<path class="st2" d="M27.1,17.4l-0.7-1.2c0,0,0,0,0,0s0,0-0.1,0s-0.1,0-0.2,0c-0.1,0-0.2,0-0.3,0v1.2h-0.6v-3.3h1.1
		c0.2,0,0.3,0,0.5,0.1c0.2,0,0.3,0.1,0.4,0.2c0.1,0.1,0.2,0.2,0.3,0.3s0.1,0.3,0.1,0.4c0,0.2-0.1,0.4-0.2,0.6
		c-0.1,0.2-0.3,0.3-0.5,0.4l0.8,1.3H27.1z M25.9,15.8h0.5c0.1,0,0.1,0,0.2,0c0.1,0,0.1-0.1,0.2-0.1c0.1-0.1,0.1-0.1,0.1-0.2
		s0.1-0.2,0.1-0.3c0-0.1,0-0.1,0-0.2c0-0.1-0.1-0.1-0.1-0.2c-0.1-0.1-0.1-0.1-0.2-0.2c-0.1,0-0.2-0.1-0.4-0.1h-0.4V15.8z"/>
	<path class="st2" d="M29.7,14.8c0.2,0,0.4,0,0.6,0.1s0.3,0.2,0.4,0.3c0.1,0.1,0.2,0.3,0.2,0.5c0,0.2,0.1,0.4,0,0.6h-2
		c0,0.1,0,0.2,0.1,0.3c0,0.1,0.1,0.2,0.2,0.2s0.1,0.1,0.2,0.1c0.1,0,0.2,0,0.3,0c0,0,0.1,0,0.1,0c0.1,0,0.1,0,0.2,0s0.1,0,0.2-0.1
		c0.1,0,0.1-0.1,0.2-0.1l0.2,0.3c-0.1,0.1-0.2,0.2-0.4,0.3s-0.3,0.1-0.6,0.1c-0.2,0-0.4,0-0.5-0.1s-0.3-0.2-0.4-0.3
		c-0.1-0.1-0.2-0.3-0.3-0.4s-0.1-0.3-0.1-0.5c0-0.2,0-0.3,0.1-0.5s0.2-0.3,0.3-0.4c0.1-0.1,0.2-0.2,0.4-0.3
		C29.4,14.9,29.6,14.8,29.7,14.8z M30.5,15.9c0-0.1,0-0.2,0-0.2s-0.1-0.1-0.1-0.2c-0.1-0.1-0.1-0.1-0.2-0.2c-0.1,0-0.2-0.1-0.3-0.1
		c-0.1,0-0.2,0-0.3,0.1c-0.1,0-0.2,0.1-0.2,0.1s-0.1,0.1-0.1,0.2c0,0.1-0.1,0.2-0.1,0.3H30.5z"/>
	<path class="st2" d="M31.8,17.2l0.3-0.4c0.1,0,0.1,0.1,0.2,0.1s0.2,0.1,0.3,0.1c0.2,0,0.3,0,0.4-0.1c0.1-0.1,0.2-0.1,0.2-0.2
		c0-0.1,0-0.1-0.1-0.2c-0.1,0-0.1-0.1-0.2-0.1s-0.2-0.1-0.3-0.1s-0.2-0.1-0.3-0.1c-0.2-0.1-0.3-0.2-0.4-0.3s-0.1-0.2-0.1-0.4
		c0-0.1,0-0.2,0.1-0.3c0.1-0.1,0.1-0.2,0.2-0.2c0.1-0.1,0.2-0.1,0.3-0.1c0.1,0,0.2-0.1,0.4-0.1c0.2,0,0.3,0,0.5,0
		c0.1,0,0.3,0.1,0.4,0.2l-0.2,0.4c-0.1-0.1-0.2-0.1-0.3-0.1c-0.1,0-0.2,0-0.3,0c-0.1,0-0.2,0-0.3,0.1c-0.1,0.1-0.1,0.1-0.1,0.2
		c0,0.1,0,0.1,0.1,0.2c0.1,0,0.1,0.1,0.3,0.1c0.1,0,0.2,0.1,0.3,0.1s0.2,0.1,0.3,0.1c0.1,0.1,0.2,0.1,0.3,0.2
		c0.1,0.1,0.1,0.2,0.1,0.3c0,0.1,0,0.2-0.1,0.3c-0.1,0.1-0.1,0.2-0.2,0.2c-0.1,0.1-0.2,0.1-0.3,0.1c-0.1,0-0.3,0-0.4,0
		c-0.1,0-0.2,0-0.2,0c-0.1,0-0.1,0-0.2,0c-0.1,0-0.1,0-0.2-0.1C32,17.3,31.9,17.3,31.8,17.2z"/>
	<path class="st2" d="M34.5,15L34.5,15l0.6-0.1v1.4c0,0.1,0,0.2,0,0.3c0,0.1,0,0.2,0.1,0.2s0.1,0.1,0.1,0.2c0.1,0,0.2,0.1,0.3,0.1
		c0,0,0.1,0,0.1,0c0.1,0,0.1,0,0.2,0c0.1,0,0.1,0,0.2-0.1c0.1,0,0.1-0.1,0.1-0.1v0v0v-1v0v-0.9h0.6v2.6h-0.5l-0.1-0.3
		c0,0-0.1,0.1-0.1,0.1c-0.1,0-0.1,0.1-0.2,0.1s-0.1,0.1-0.2,0.1s-0.1,0-0.2,0c-0.1,0-0.2,0-0.2,0c-0.1,0-0.1,0-0.2-0.1
		s-0.1-0.1-0.2-0.1s-0.1-0.1-0.1-0.1c-0.1-0.1-0.1-0.1-0.1-0.2c0-0.1-0.1-0.1-0.1-0.2c0-0.1,0-0.1,0-0.2c0-0.1,0-0.1,0-0.2V15
		L34.5,15z"/>
	<path class="st2" d="M41.4,17.3L41.4,17.3l-0.6,0.1V16c0-0.1,0-0.2,0-0.3s0-0.2,0-0.2c0-0.1-0.1-0.1-0.1-0.2s-0.1-0.1-0.2-0.1
		c0,0,0,0-0.1,0c0,0-0.1,0-0.1,0c-0.1,0-0.1,0-0.2,0.1c-0.1,0-0.1,0.1-0.2,0.1c0,0.1,0,0.2,0,0.3c0,0.1,0,0.1,0,0.2v1.4h-0.6V16
		c0-0.1,0-0.2,0-0.3s0-0.2,0-0.2c0-0.1-0.1-0.1-0.1-0.2s-0.1-0.1-0.2-0.1c0,0-0.1,0-0.1,0c-0.1,0-0.1,0-0.2,0c-0.1,0-0.1,0-0.2,0.1
		c-0.1,0-0.1,0.1-0.1,0.1v2h-0.6v-2.6h0.5l0.1,0.3c0.1-0.1,0.2-0.1,0.3-0.2c0.1-0.1,0.3-0.1,0.4-0.1c0.2,0,0.3,0,0.4,0.1
		s0.2,0.2,0.3,0.3c0.1-0.1,0.1-0.1,0.2-0.2s0.1-0.1,0.2-0.1c0.1,0,0.1-0.1,0.2-0.1c0.1,0,0.1,0,0.2,0c0.1,0,0.2,0,0.3,0.1
		s0.2,0.1,0.3,0.2c0.1,0.1,0.1,0.2,0.2,0.3c0,0.1,0.1,0.2,0.1,0.3V16V17.3z"/>
	<path class="st2" d="M43.4,14.8c0.2,0,0.4,0,0.6,0.1c0.2,0.1,0.3,0.2,0.4,0.3c0.1,0.1,0.2,0.3,0.2,0.5c0,0.2,0.1,0.4,0,0.6h-2
		c0,0.1,0,0.2,0.1,0.3c0,0.1,0.1,0.2,0.2,0.2c0.1,0.1,0.1,0.1,0.2,0.1c0.1,0,0.2,0,0.3,0c0,0,0.1,0,0.1,0c0.1,0,0.1,0,0.2,0
		s0.1,0,0.2-0.1c0.1,0,0.1-0.1,0.2-0.1l0.2,0.3c-0.1,0.1-0.2,0.2-0.4,0.3c-0.1,0.1-0.3,0.1-0.6,0.1c-0.2,0-0.4,0-0.5-0.1
		s-0.3-0.2-0.4-0.3c-0.1-0.1-0.2-0.3-0.3-0.4s-0.1-0.3-0.1-0.5c0-0.2,0-0.3,0.1-0.5s0.2-0.3,0.3-0.4c0.1-0.1,0.2-0.2,0.4-0.3
		C43.1,14.9,43.2,14.8,43.4,14.8z M44.1,15.9c0-0.1,0-0.2,0-0.2S44,15.5,44,15.5c-0.1-0.1-0.1-0.1-0.2-0.2c-0.1,0-0.2-0.1-0.3-0.1
		c-0.1,0-0.2,0-0.3,0.1c-0.1,0-0.2,0.1-0.2,0.1c-0.1,0.1-0.1,0.1-0.1,0.2c0,0.1-0.1,0.2-0.1,0.3H44.1z"/>
</g>
<g>
	<path class="st2" d="M42.1,43.8C42,43.7,42,43.6,42,43.4l-0.2,0.1v5.1H29.6V35.6h2.9c0.4,0,0.7-0.3,0.7-0.7v-3h8.6v7.8l0.9-0.7
		v-7.4c0-0.4-0.3-0.7-0.7-0.7h-9.6c-0.2,0-0.4,0.1-0.5,0.2l-3.1,3.2c-0.1,0.1-0.2,0.3-0.2,0.5v14.1c0,0.4,0.3,0.7,0.7,0.7H42
		c0.4,0,0.7-0.3,0.7-0.7v-4.6C42.5,44.2,42.3,44,42.1,43.8z"/>
	<path class="st2" d="M38,34.9C38,34.9,38,34.9,38,34.9C38,34.9,38,34.9,38,34.9C38,34.9,38,34.9,38,34.9C38,35,38.1,35,38.1,35
		c0,0,0,0,0,0c0,0,0,0,0,0c0,0,0,0,0,0c0,0,0,0,0,0c0,0,0,0,0.1,0c0,0,0,0,0,0c0,0,0,0,0,0c0,0,0,0,0,0c0,0,0,0,0,0c0,0,0,0,0,0
		c0,0,0,0,0,0c0,0,0,0,0,0c0,0,0,0,0,0c0,0,0,0-0.1,0c0,0,0,0,0,0C38.1,34.9,38,34.9,38,34.9C38,34.8,38,34.8,38,34.9
		C38,34.8,38,34.8,38,34.9C38,34.9,38,34.9,38,34.9C38,34.9,38,34.9,38,34.9C38,34.9,38,34.9,38,34.9L38,34.9z"/>
	<path class="st2" d="M37.4,34.8C37.5,34.8,37.5,34.8,37.4,34.8c0.1,0.1,0.1,0.2,0.1,0.2c0.1,0.2,0.3,0.4,0.5,0.4
		c0.2,0,0.4-0.1,0.5-0.3c0-0.1,0.1-0.1,0.1-0.2c0,0,0,0,0,0c0.2,0,0.2-0.2,0.2-0.3c0-0.1,0-0.1-0.1-0.2c0,0,0,0,0,0
		c0-0.1,0-0.1,0-0.2c0-0.1,0-0.1,0-0.2c0-0.1-0.1-0.3-0.2-0.4c0,0,0,0-0.1,0c-0.2-0.2-0.6-0.2-0.9,0c-0.2,0.1-0.3,0.2-0.3,0.5
		c0,0.1,0,0.2,0,0.3c0,0,0,0,0,0c-0.1,0-0.1,0.1-0.1,0.2C37.3,34.6,37.3,34.7,37.4,34.8z M37.5,34.2c0.3,0,0.6,0,0.9-0.2
		c0,0,0,0,0.1,0c0.1,0.1,0.1,0.1,0.2,0.1c0,0,0,0,0,0.1c0,0.3-0.1,0.5-0.2,0.8c-0.2,0.3-0.6,0.4-0.8,0
		C37.6,34.8,37.5,34.5,37.5,34.2C37.5,34.2,37.5,34.2,37.5,34.2z"/>
	<path class="st2" d="M36.4,37.4h3.4c0,0,0,0,0,0c0.1,0,0.2-0.1,0.2-0.2v-4c0-0.1-0.1-0.2-0.2-0.2h-3.4c-0.1,0-0.2,0.1-0.2,0.2v4
		C36.2,37.3,36.3,37.4,36.4,37.4C36.4,37.4,36.4,37.4,36.4,37.4z M36.4,33.2h3.4v3.3c0,0,0-0.1,0-0.1c0-0.1-0.1-0.2-0.2-0.3
		c-0.1-0.1-0.2-0.2-0.3-0.2c-0.1-0.1-0.3-0.1-0.4-0.2c-0.1,0-0.1-0.1-0.2-0.1c0,0-0.1-0.1-0.1-0.1h0l0,0l0,0l0,0l0,0c0,0,0,0,0,0
		c0,0,0,0,0,0c0,0,0,0,0,0c0,0,0,0,0,0c0,0,0,0,0,0c0,0,0,0,0,0c0,0,0,0,0,0c0,0,0,0,0,0c0,0,0,0,0,0c-0.1,0.7-0.2,1.3-0.5,1.7
		c-0.2-0.2-0.3-0.4-0.3-0.7c-0.1-0.3-0.1-0.6-0.1-1c0,0,0,0,0,0c0,0-0.1,0-0.1,0.1c-0.2,0.1-0.6,0.3-0.6,0.3
		c-0.2,0.1-0.3,0.2-0.3,0.3c0,0-0.1,0.1-0.1,0.1c0,0.1-0.1,0.1-0.1,0.2c0,0,0,0.1,0,0.1V33.2z"/>
	<polygon class="st2" points="38.8,44.8 44.9,40.4 43.9,39.1 37.9,43.5 	"/>
	<path class="st2" d="M46.7,40.6l-0.5-0.8c-0.2,0.2-0.4,0.3-0.5,0.5l0.1,0.2c0.1,0.1,0,0.2-0.1,0.3l-2.9,2.1
		c-0.1,0.1-0.1,0.1-0.1,0.2c0,0.1,0,0.2,0.1,0.3c0.1,0.2,0.3,0.2,0.5,0.1l3.4-2.4C46.8,41,46.8,40.8,46.7,40.6z"/>
	<path class="st2" d="M35.9,46.2c-0.1,0.1-0.2,0.1-0.3,0l-1.8,1.3c0,0,0,0,0,0c0.1,0,0.1,0,0.2,0c0,0,0.1-0.1,0.1-0.1l2.5-0.5
		c0,0,0.1,0,0.1,0l0.9-1.3l0,0.1c0,0,0,0,0.1,0.1c0,0,0.1,0,0.1,0l0.6-0.4c0.1,0,0.1-0.1,0-0.2l-0.8-1.2c0-0.1-0.1-0.1-0.2,0
		l-0.6,0.4c-0.1,0-0.1,0.1,0,0.2l0,0.1l-1.5,0.5c0,0-0.1,0-0.1,0.1l-1.4,2.3c0,0-0.1,0-0.1,0c-0.1,0-0.1,0.1-0.1,0.2c0,0,0,0,0,0
		l1.8-1.3c0-0.1,0-0.2,0.1-0.3c0.1-0.1,0.2,0,0.3,0.1C36,45.9,36,46.1,35.9,46.2z"/>
	<path class="st2" d="M46.2,39.5c0.3-0.2,0.3-0.6,0.1-0.9l-0.2-0.3c-0.2-0.3-0.6-0.3-0.8-0.2l-1,0.7l0.9,1.3L46.2,39.5z"/>
	<path class="st2" d="M31.4,39.6L31.4,39.6c0,0.2,0.1,0.4,0.3,0.4h8c0.2,0,0.3-0.1,0.3-0.3v-0.1c0-0.2-0.1-0.3-0.3-0.3h-8
		C31.6,39.3,31.4,39.4,31.4,39.6z"/>
	<path class="st2" d="M31.7,42.2h6.6l0.9-0.7h-7.6c-0.1,0-0.2,0-0.2,0.1c-0.1,0.1-0.1,0.1-0.1,0.2C31.4,42,31.6,42.2,31.7,42.2z"/>
	<path class="st2" d="M31.7,44.4h3c0.1-0.2,0.3-0.3,0.4-0.3l1-0.3c0,0,0,0,0,0h-4.5c-0.1,0-0.2,0-0.2,0.1c-0.1,0.1-0.1,0.1-0.1,0.2
		C31.4,44.3,31.6,44.4,31.7,44.4z"/>
	<path class="st2" d="M31.7,46.7h1.5c0,0,0.1-0.1,0.1-0.1c0,0,0.1,0,0.1-0.1l0.3-0.5h-2c-0.1,0-0.2,0-0.2,0.1
		c-0.1,0.1-0.1,0.1-0.1,0.2C31.4,46.5,31.6,46.7,31.7,46.7z"/>
	<path class="st2" d="M38.2,36.3C38.2,36.3,38.2,36.3,38.2,36.3C38.2,36.3,38.2,36.3,38.2,36.3C38.2,36.3,38.2,36.3,38.2,36.3
		C38.2,36.3,38.2,36.3,38.2,36.3L38.2,36.3C38.2,36.4,38.2,36.3,38.2,36.3L38.2,36.3C38.2,36.3,38.2,36.3,38.2,36.3z"/>
	<path class="st2" d="M38.2,36.5C38.2,36.5,38.2,36.5,38.2,36.5C38.2,36.5,38.2,36.6,38.2,36.5C38.2,36.6,38.2,36.6,38.2,36.5
		C38.2,36.6,38.2,36.6,38.2,36.5C38.2,36.6,38.2,36.6,38.2,36.5C38.2,36.6,38.2,36.6,38.2,36.5L38.2,36.5
		C38.2,36.5,38.2,36.5,38.2,36.5z"/>
	<path class="st2" d="M38.2,36.1C38.2,36.1,38.2,36.1,38.2,36.1C38.2,36.1,38.2,36.1,38.2,36.1C38.2,36.1,38.2,36.1,38.2,36.1
		C38.2,36.1,38.2,36.1,38.2,36.1C38.2,36.1,38.2,36.1,38.2,36.1C38.2,36.1,38.2,36.1,38.2,36.1z"/>
	<path class="st2" d="M38.2,35.9C38.2,35.9,38.2,35.9,38.2,35.9C38.2,35.9,38.1,35.9,38.2,35.9C38.1,35.9,38.2,35.9,38.2,35.9z"/>
	<path class="st2" d="M38,35.9C38,35.9,38.1,35.9,38,35.9C38.1,35.9,38,35.9,38,35.9C38,35.9,38,35.9,38,35.9z"/>
	<path class="st2" d="M38,36C38,36,38,36,38,36C38,36,38,36.1,38,36c0,0.1,0.1,0.1,0.1,0.1c0,0,0.1,0,0.1,0c0,0,0,0,0,0
		c0,0,0,0,0-0.1v0c0,0,0,0,0,0C38.1,36,38.1,35.9,38,36C38.1,35.9,38.1,36,38,36C38,36,38,36,38,36L38,36z"/>
	<path class="st2" d="M38,36.3C38,36.3,38,36.3,38,36.3C38,36.3,38,36.3,38,36.3C38,36.3,38,36.4,38,36.3L38,36.3
		C38,36.3,38,36.3,38,36.3C38,36.3,38,36.3,38,36.3C38,36.3,38,36.3,38,36.3C38,36.3,38,36.3,38,36.3z"/>
	<path class="st2" d="M38,36.4C38,36.4,38,36.4,38,36.4c0,0,0.1,0.1,0.1,0.1c0,0,0.1,0,0.1-0.1c0,0,0,0,0,0c0,0,0,0,0,0c0,0,0,0,0,0
		c0,0-0.1,0-0.1-0.1C38.1,36.4,38,36.4,38,36.4C38,36.4,38,36.4,38,36.4C38,36.4,38,36.4,38,36.4z"/>
	<path class="st2" d="M38,36.1C38,36.1,38,36.1,38,36.1C38,36.1,38,36.1,38,36.1C38,36.1,38,36.1,38,36.1C38,36.1,38,36.1,38,36.1
		C38.1,36.1,38,36.1,38,36.1C38,36.1,38,36.1,38,36.1z"/>
	<path class="st2" d="M38,36.2C38,36.2,38,36.2,38,36.2C38,36.3,38.1,36.3,38,36.2c0.1,0.1,0.2,0.1,0.2,0c0,0,0,0,0,0v0c0,0,0,0,0,0
		C38.1,36.2,38.1,36.1,38,36.2C38.1,36.1,38.1,36.2,38,36.2C38,36.2,38,36.2,38,36.2L38,36.2z"/>
	<path class="st2" d="M38,36.5C38,36.5,38,36.5,38,36.5L38,36.5C38,36.5,38,36.5,38,36.5C38,36.6,38,36.6,38,36.5
		C38,36.6,38,36.6,38,36.5C38,36.6,38,36.6,38,36.5C38,36.6,38,36.6,38,36.5C38,36.6,38,36.5,38,36.5C38,36.5,38,36.5,38,36.5z"/>
	<path class="st2" d="M38.1,36.5C38.1,36.6,38,36.6,38.1,36.5L38.1,36.5c-0.1,0.1,0,0.1,0,0.2l0,0c0,0,0,0,0,0c0,0,0,0,0,0
		C38.1,36.6,38.2,36.6,38.1,36.5L38.1,36.5C38.2,36.6,38.1,36.6,38.1,36.5z"/>
	<path class="st2" d="M38,35.8C38,35.8,38,35.8,38,35.8C38,35.9,38,35.9,38,35.8C38.1,35.9,38.1,35.9,38,35.8
		c0.1,0.1,0.1,0.1,0.1,0.1c0,0,0,0,0,0c0,0,0,0,0,0H38z"/>
	<path class="st2" d="M38.2,35.5C38.2,35.5,38.2,35.5,38.2,35.5l-0.1,0c0,0,0,0,0,0L38,35.6c0,0,0,0,0,0l0.1,0.2h0.1l0.1-0.2
		C38.3,35.6,38.3,35.6,38.2,35.5L38.2,35.5z"/>
	<path class="st2" d="M37.8,34.5C37.9,34.5,37.9,34.4,37.8,34.5c0.1-0.1,0-0.1,0-0.1C37.8,34.3,37.8,34.4,37.8,34.5
		C37.8,34.4,37.8,34.5,37.8,34.5z"/>
	<path class="st2" d="M38.4,34.5C38.4,34.5,38.4,34.4,38.4,34.5c0.1-0.1,0-0.1,0-0.1C38.3,34.3,38.3,34.4,38.4,34.5
		C38.3,34.4,38.3,34.5,38.4,34.5z"/>
</g>
</svg>
