<?xml version="1.0" encoding="utf-8"?>
<!-- Generator: Adobe Illustrator 26.3.1, SVG Export Plug-In . SVG Version: 6.00 Build 0)  -->
<svg version="1.1" id="Layer_1" xmlns="http://www.w3.org/2000/svg" xmlns:xlink="http://www.w3.org/1999/xlink" x="0px" y="0px"
	 viewBox="0 0 100 100" style="enable-background:new 0 0 100 100;" xml:space="preserve">
<style type="text/css">
	.st0{fill:#FFFFFF;}
</style>
<g>
	<path class="st0" d="M70.3,66.4c-0.4-0.6-0.7-1.2-0.8-1.8l-0.8,0.6V88H12.5V29.3h13.3c1.7,0,3.1-1.4,3.1-3.1V12.8h39.8V48l4.3-3
		V11.7c0-1.8-1.4-3.2-3.2-3.2H25.7c-0.8,0-1.7,0.3-2.3,0.9L9.1,23.7c-0.6,0.6-0.9,1.4-0.9,2.3v63.1c0,1.8,1.4,3.2,3.2,3.2h58.4
		c1.8,0,3.2-1.4,3.2-3.2V68.3C71.9,68,71,67.4,70.3,66.4z"/>
	<path class="st0" d="M51.1,26.3c0,0.1,0,0.1,0.1,0.1c0,0,0,0,0,0c0.1,0,0.1,0.1,0.2,0.1c0.1,0,0.2,0.1,0.3,0.1c0,0,0,0,0.1,0
		c0,0,0,0,0,0c0,0,0,0,0,0c0,0,0,0,0.1,0c0.1,0,0.2,0,0.3-0.1c0.1,0,0.1-0.1,0.2-0.1c0,0,0,0,0,0c0,0,0.1-0.1,0.1-0.1c0,0,0,0,0,0
		c0,0,0-0.1,0-0.1c0,0,0,0,0,0c0,0-0.1,0-0.1,0c0,0,0,0,0,0c-0.1,0.1-0.2,0.1-0.3,0.1c0,0,0,0-0.1,0c-0.1,0-0.2-0.1-0.3-0.1
		c0,0,0,0,0,0c0,0-0.1,0-0.1,0c0,0,0,0,0,0C51.1,26.2,51.1,26.2,51.1,26.3C51.1,26.2,51.1,26.3,51.1,26.3L51.1,26.3z"/>
	<path class="st0" d="M48.6,25.7c0.2,0.1,0.3,0.2,0.4,0.4c0.1,0.2,0.1,0.3,0.2,0.5c0.5,1,1.2,1.7,2.4,1.7c1.1,0,1.9-0.5,2.4-1.5
		c0.1-0.3,0.3-0.5,0.4-0.8c0-0.1,0.1-0.2,0.2-0.2c0.7-0.2,0.7-0.8,0.8-1.4c0.1-0.3,0-0.6-0.3-0.8c-0.1,0-0.1-0.1-0.1-0.2
		c0-0.2,0-0.5,0-0.7c0-0.3,0-0.6,0.1-0.9c0-0.7-0.5-1.4-1.1-1.6c-0.1,0-0.2-0.1-0.3-0.1c-0.9-1-3-0.9-4.1-0.2
		c-0.8,0.5-1.2,1.1-1.2,2c0,0.5,0.1,1,0.1,1.6c0,0.1,0,0.2-0.1,0.2C48,23.7,47.9,24,48,24.4C48,24.9,48.1,25.4,48.6,25.7z M49,23.3
		c1.5-0.1,3-0.1,4.2-1c0.1-0.1,0.2-0.1,0.3,0c0.2,0.2,0.5,0.4,0.8,0.5c0.2,0.1,0.2,0.2,0.2,0.4c0,1.3-0.3,2.4-0.9,3.5
		c-0.9,1.5-2.9,1.6-3.8,0.1c-0.7-1-1-2.1-1-3.4C48.8,23.4,48.9,23.3,49,23.3z"/>
	<path class="st0" d="M43.7,37.5h15.8c0,0,0,0,0,0c0.5,0,0.8-0.4,0.8-0.8V18.7c0-0.5-0.4-0.8-0.8-0.8H43.7c-0.5,0-0.8,0.4-0.8,0.8
		v17.9C42.9,37.1,43.2,37.5,43.7,37.5C43.7,37.5,43.7,37.5,43.7,37.5z M43.8,18.8h15.7v14.8c0-0.2-0.1-0.4-0.1-0.6
		c-0.2-0.5-0.4-1-0.8-1.4c-0.4-0.4-0.8-0.7-1.3-1c-0.6-0.3-1.2-0.5-1.8-0.8c-0.3-0.1-0.6-0.3-0.9-0.5c0,0-0.5-0.4-0.6-0.4h0l0,0l0,0
		l0,0l0,0c0,0,0,0,0,0c0,0,0,0,0,0c0,0,0,0,0,0c0,0,0,0,0,0c0,0,0,0,0,0c0,0,0,0,0,0c0,0,0,0,0,0c0,0,0,0,0,0c0,0,0,0,0,0
		c-0.3,3.2-0.7,5.9-2.3,7.4c-0.8-0.8-1.3-1.9-1.6-3.1c-0.3-1.3-0.5-2.7-0.6-4.3c0,0,0,0,0,0c-0.1,0-0.3,0.2-0.4,0.3
		c-0.8,0.6-2.8,1.3-2.8,1.3c-0.7,0.3-1.4,1-1.5,1.1c-0.2,0.2-0.3,0.4-0.5,0.7c-0.1,0.3-0.3,0.5-0.3,0.8c-0.1,0.2-0.1,0.4-0.2,0.7
		V18.8z"/>
	<rect x="49.6" y="54.3" transform="matrix(0.82 -0.5724 0.5724 0.82 -21.1858 48.6188)" class="st0" width="34.3" height="7.4"/>
	<path class="st0" d="M91.3,52L89,48.6c-0.9,0.8-1.7,1.4-2.5,2.1l0.6,0.9c0.3,0.4,0.2,1-0.2,1.3l-13.4,9.4c-0.4,0.3-0.6,0.6-0.7,1
		c-0.1,0.4,0,0.8,0.3,1.2c0.5,0.7,1.5,0.9,2.2,0.4l15.7-11C91.6,53.5,91.8,52.6,91.3,52z"/>
	<path class="st0" d="M41.5,76.8c-0.4,0.3-0.8,0.2-1.2,0L32,82.7c0,0,0,0.1,0,0.1c0.3,0.1,0.6,0.1,0.8-0.1c0.2-0.1,0.3-0.3,0.3-0.6
		l11.7-2.4c0.1,0,0.3-0.1,0.3-0.2l4.3-5.7l0.2,0.3c0.1,0.1,0.2,0.2,0.4,0.2c0.1,0,0.3,0,0.4-0.1l2.8-2c0.3-0.2,0.3-0.5,0.1-0.8
		l-3.8-5.5c-0.2-0.3-0.5-0.3-0.8-0.1l-2.8,2c-0.3,0.2-0.3,0.5-0.1,0.8l0.2,0.3l-6.9,2c-0.1,0-0.2,0.1-0.3,0.2l-6.3,10.1
		c-0.2,0-0.4,0-0.6,0.1c-0.2,0.2-0.4,0.5-0.4,0.7c0,0,0,0.1,0.1,0l8.4-5.8c-0.1-0.4,0.1-0.9,0.5-1.2c0.4-0.2,1-0.1,1.3,0.3
		C42.1,75.8,42,76.5,41.5,76.8z"/>
	<path class="st0" d="M89,47c1.3-0.9,1.6-2.6,0.7-3.8l-1.1-1.5c-0.9-1.2-2.6-1.6-3.8-0.7L80,44.4l4.2,6L89,47z"/>
	<path class="st0" d="M20.8,47.4v0.3c0,0.8,0.6,1.4,1.4,1.4H59c0.8,0,1.4-0.6,1.4-1.4v-0.3c0-0.8-0.6-1.4-1.4-1.4H22.2
		C21.4,46,20.8,46.6,20.8,47.4z"/>
	<path class="st0" d="M22.3,59.1h30.5l4.4-3H22.3c-0.4,0-0.8,0.2-1.1,0.4c-0.3,0.3-0.4,0.7-0.4,1.1C20.8,58.4,21.5,59.1,22.3,59.1z"
		/>
	<path class="st0" d="M22.3,69.1h13.7c0.5-0.7,1.2-1.2,2.1-1.5l4.7-1.4c0-0.1,0.1-0.1,0.1-0.2H22.3c-0.4,0-0.8,0.2-1.1,0.4
		c-0.3,0.3-0.4,0.7-0.4,1.1C20.8,68.4,21.5,69.1,22.3,69.1z"/>
	<path class="st0" d="M22.3,79.1h6.9c0.2-0.2,0.4-0.4,0.6-0.6c0.1-0.1,0.3-0.2,0.4-0.2l1.4-2.2h-9.4c-0.4,0-0.8,0.2-1.1,0.4
		c-0.3,0.3-0.4,0.7-0.4,1.1C20.8,78.4,21.5,79.1,22.3,79.1z"/>
	<path class="st0" d="M52.2,32.5C52.2,32.5,52.2,32.5,52.2,32.5C52.2,32.5,52.1,32.5,52.2,32.5c-0.1,0.1-0.2,0.1-0.3,0.2
		c0.1,0.1,0.3,0.1,0.4,0.2l0,0c0,0,0-0.1,0-0.1v0C52.2,32.7,52.2,32.6,52.2,32.5z"/>
	<path class="st0" d="M52.2,33.4c-0.1,0.1-0.3,0.2-0.4,0.2c0.1,0.1,0.3,0.1,0.4,0.2c0,0,0,0,0,0c0,0,0,0,0,0c0,0,0,0,0,0
		c0,0,0,0,0-0.1l0,0C52.3,33.6,52.3,33.5,52.2,33.4z"/>
	<path class="st0" d="M52.1,31.9C52.1,31.9,52.1,31.9,52.1,31.9c0-0.1,0-0.1,0-0.1c0,0,0,0,0,0c0-0.1,0-0.1,0-0.2
		c-0.1,0-0.2,0.1-0.3,0.1C51.9,31.8,52,31.9,52.1,31.9z"/>
	<path class="st0" d="M52,31c0-0.1,0-0.1,0-0.2c-0.1,0-0.1,0.1-0.2,0.1C51.9,30.9,52,30.9,52,31z"/>
	<path class="st0" d="M51.3,31c0.1,0,0.1-0.1,0.2-0.1c-0.1,0-0.1-0.1-0.2-0.1C51.3,30.8,51.3,30.9,51.3,31z"/>
	<path class="st0" d="M51.3,31.2c0,0.1,0,0.2,0,0.3c0,0,0,0,0,0c0.1,0.1,0.2,0.1,0.4,0.2c0.1-0.1,0.2-0.1,0.4-0.2c0,0,0,0,0,0
		c0-0.1,0-0.2,0-0.3v0c0,0,0,0,0,0c-0.1-0.1-0.2-0.1-0.3-0.2C51.6,31,51.5,31.1,51.3,31.2C51.3,31.1,51.3,31.2,51.3,31.2L51.3,31.2z
		"/>
	<path class="st0" d="M51.2,32.5c0,0.1,0,0.2,0,0.3c0,0,0,0,0,0c0,0,0,0.1,0,0.1l0,0c0.1-0.1,0.3-0.1,0.4-0.2
		C51.4,32.6,51.3,32.6,51.2,32.5C51.2,32.5,51.2,32.5,51.2,32.5C51.2,32.5,51.2,32.5,51.2,32.5z"/>
	<path class="st0" d="M51.1,33.2C51.1,33.2,51.1,33.2,51.1,33.2c0.2,0.1,0.4,0.2,0.5,0.3c0.2-0.1,0.4-0.2,0.5-0.3c0,0,0,0,0-0.1
		c0,0,0-0.1,0-0.1c0,0,0,0,0,0c-0.2-0.1-0.3-0.2-0.5-0.3c-0.2,0.1-0.3,0.2-0.5,0.3C51.2,33.1,51.1,33.1,51.1,33.2
		C51.1,33.1,51.1,33.1,51.1,33.2z"/>
	<path class="st0" d="M51.3,31.8C51.3,31.8,51.3,31.8,51.3,31.8C51.3,31.8,51.2,31.9,51.3,31.8c0,0.1,0,0.1,0,0.1
		c0.1,0,0.2-0.1,0.3-0.1c-0.1,0-0.2-0.1-0.3-0.1C51.3,31.7,51.3,31.7,51.3,31.8z"/>
	<path class="st0" d="M51.2,32.2c0,0.1,0,0.1,0,0.2c0.2,0.1,0.3,0.2,0.5,0.3c0.2-0.1,0.3-0.2,0.5-0.3c0-0.1,0-0.1,0-0.2v0
		c0-0.1-0.1-0.1-0.2-0.2c-0.1,0-0.2-0.1-0.3-0.2c-0.1,0.1-0.2,0.1-0.3,0.2C51.3,32.1,51.2,32.1,51.2,32.2L51.2,32.2z"/>
	<path class="st0" d="M51.1,33.4c0,0.1,0,0.2,0,0.3v0c0,0,0,0,0,0c0,0,0,0,0,0.1c0,0,0,0,0,0c0,0,0,0,0,0c0,0,0,0,0,0
		c0.1-0.1,0.3-0.1,0.4-0.2C51.4,33.5,51.3,33.4,51.1,33.4z"/>
	<path class="st0" d="M51.7,33.7c-0.1,0.1-0.3,0.2-0.4,0.2l0,0c0.2,0.2,0.3,0.3,0.4,0.5l0,0c0,0,0.1-0.1,0.1-0.1c0,0,0,0,0,0
		c0.1-0.1,0.2-0.2,0.3-0.4l0,0C52,33.8,51.8,33.8,51.7,33.7z"/>
	<path class="st0" d="M51.4,30.4c0,0.1,0,0.1,0,0.2c0,0,0,0,0,0c0.1,0.1,0.2,0.1,0.3,0.2c0.1-0.1,0.2-0.1,0.3-0.2c0,0,0,0,0,0
		c0-0.1,0-0.1,0-0.2H51.4z"/>
	<path class="st0" d="M52.1,28.9C52,28.9,52,28.9,52.1,28.9l-0.7,0c0,0-0.1,0-0.1,0L51,29.3c0,0,0,0.1,0,0.1l0.4,0.8H52l0.3-0.8
		c0,0,0-0.1,0-0.1L52.1,28.9z"/>
	<path class="st0" d="M50.5,24.3c0.2,0,0.4-0.1,0.4-0.3s-0.2-0.3-0.4-0.3c-0.2,0-0.4,0.1-0.4,0.3S50.3,24.3,50.5,24.3z"/>
	<path class="st0" d="M52.9,24.3c0.2,0,0.4-0.1,0.4-0.3s-0.2-0.3-0.4-0.3c-0.2,0-0.4,0.1-0.4,0.3S52.7,24.3,52.9,24.3z"/>
</g>
</svg>
