<?xml version="1.0" encoding="utf-8"?>
<!-- Generator: Adobe Illustrator 26.3.1, SVG Export Plug-In . SVG Version: 6.00 Build 0)  -->
<svg version="1.1" id="Layer_1" xmlns="http://www.w3.org/2000/svg" xmlns:xlink="http://www.w3.org/1999/xlink" x="0px" y="0px"
	 viewBox="0 0 57.2 57.2" style="enable-background:new 0 0 57.2 57.2;" xml:space="preserve">
<style type="text/css">
	.st0{fill:#3297B7;}
</style>
<path class="st0" d="M29.5,3.4C15.1,3.4,3.4,15.1,3.4,29.5c0,14.4,11.7,26.1,26.1,26.1c14.4,0,26.1-11.7,26.1-26.1
	C55.6,15.1,43.9,3.4,29.5,3.4z M45,21.6c0,0.3,0,0.7,0,1c0,10-7.6,21.6-21.6,21.6c-4.3,0-8.3-1.3-11.6-3.4c0.6,0.1,1.2,0.1,1.8,0.1
	c3.6,0,6.8-1.2,9.4-3.2c-3.3-0.1-6.1-2.3-7.1-5.3c0.5,0.1,0.9,0.1,1.4,0.1c0.7,0,1.4-0.1,2-0.3c-3.5-0.7-6.1-3.8-6.1-7.4l0-0.1
	c1,0.6,2.2,0.9,3.4,0.9c-2-1.4-3.4-3.7-3.4-6.3c0-1.4,0.4-2.7,1-3.8c3.7,4.6,9.3,7.6,15.6,7.9c-0.1-0.6-0.2-1.1-0.2-1.7
	c0-4.2,3.4-7.6,7.6-7.6c2.2,0,4.2,0.9,5.5,2.4c1.7-0.3,3.4-1,4.8-1.8c-0.6,1.8-1.8,3.3-3.3,4.2c1.5-0.2,3-0.6,4.4-1.2
	C47.8,19.2,46.5,20.6,45,21.6z"/>
</svg>
