<?xml version="1.0" encoding="utf-8"?>
<!-- Generator: Adobe Illustrator 26.3.1, SVG Export Plug-In . SVG Version: 6.00 Build 0)  -->
<svg version="1.1" id="Layer_1" xmlns="http://www.w3.org/2000/svg" xmlns:xlink="http://www.w3.org/1999/xlink" x="0px" y="0px"
	 viewBox="0 0 63.3 51.4" style="enable-background:new 0 0 63.3 51.4;" xml:space="preserve">
<style type="text/css">
	.st0{fill:#FFFFFF;}
</style>
<g>
	<path class="st0" d="M52.8,31.4H11.4c-2.7,0-5-2.2-5-5v-0.3c0-2.7,2.2-5,5-5h41.4c2.7,0,5,2.2,5,5v0.3
		C57.7,29.2,55.5,31.4,52.8,31.4z"/>
	<path class="st0" d="M52.8,15.7H11.4c-2.7,0-5-2.2-5-5v-0.3c0-2.7,2.2-5,5-5h41.4c2.7,0,5,2.2,5,5v0.3
		C57.7,13.4,55.5,15.7,52.8,15.7z"/>
	<path class="st0" d="M52.8,47.2H11.4c-2.7,0-5-2.2-5-5v-0.3c0-2.7,2.2-5,5-5h41.4c2.7,0,5,2.2,5,5v0.3C57.7,45,55.5,47.2,52.8,47.2
		z"/>
</g>
</svg>
